<?xml version="1.0" encoding="utf-8"?>
<!-- Generator: Adobe Illustrator 28.1.0, SVG Export Plug-In . SVG Version: 6.00 Build 0)  -->
<svg version="1.1" id="Ebene_1" xmlns="http://www.w3.org/2000/svg" xmlns:xlink="http://www.w3.org/1999/xlink" x="0px" y="0px"
	 viewBox="0 0 30.7 48.9" style="enable-background:new 0 0 30.7 48.9;" xml:space="preserve">
<style type="text/css">
	.st0{fill:none;stroke:#000000;stroke-width:3;stroke-miterlimit:10;}
</style>
<path class="st0" d="M7.7,20.7c0,0-4.1-18.8,7.3-19.2s8.5,19.2,8.5,19.2s6.4,1,5.7,5c-0.7,4-8.5,21.6-14,21.7
	C10.8,47.5,1.5,28.7,1.5,24.7S7.7,20.7,7.7,20.7L7.7,20.7z"/>
<path class="st0" d="M106.8,4.3c0,0-18.8,4.1-19.2-7.3c-0.4-11.4,19.2-8.5,19.2-8.5s1-6.3,5-5.7c4,0.7,21.6,8.5,21.7,14
	c0.1,4.4-18.7,13.7-22.7,13.7S106.8,4.3,106.8,4.3L106.8,4.3z"/>
</svg>
