<?xml version="1.0" encoding="utf-8"?>
<!-- Generator: Adobe Illustrator 28.1.0, SVG Export Plug-In . SVG Version: 6.00 Build 0)  -->
<svg version="1.1" id="Ebene_1" xmlns="http://www.w3.org/2000/svg" xmlns:xlink="http://www.w3.org/1999/xlink" x="0px" y="0px"
	 viewBox="0 0 600 600" style="enable-background:new 0 0 600 600;" xml:space="preserve">
<style type="text/css">
	.st0{fill:#ff0000; stroke-width: 9px;}
</style>
<g>
	<path class="st0" d="M356.32,63c6.71,0,13.93,0.79,21.45,2.34c21.81,4.5,36.84,13.63,44.68,27.15c5.46,9.42,5.58,18.09,5.57,19.15
		l-2.16,24.33l23.54-8.41c0.28-0.1,27.97-9.87,56.35-9.87c11.96,0,22.19,1.73,30.41,5.14c8.98,3.72,15.46,9.38,19.82,17.3
		c10.14,18.41,11.73,39.66,4.73,63.17c-5.57,18.69-14.69,31.8-14.75,31.89l-6.1,8.41l5.37,9.02c0.1,0.17,9.82,16.79,14.47,37.14
		c5.47,23.96,1.63,42.08-11.41,53.83c-9.79,8.82-21.79,13.11-36.68,13.11c-27.38,0-53.37-14.89-53.6-15.02l-19.4-11.38l-4.39,22.05
		c-0.03,0.14-2.96,14.08-11.4,28.81c-10.77,18.78-25.09,29.86-42.58,32.91c-3.18,0.56-6.36,0.84-9.44,0.84
		c-14.53,0-28.27-6.2-40.84-18.42c-9.98-9.7-15.48-19.73-15.8-20.32l-8.07-15.78l-14.92,9.85c-0.19,0.13-19.72,12.56-44.08,12.56
		c-11.2,0-21.8-2.66-31.51-7.9c-9.22-4.97-15.16-11.91-17.68-20.62c-1.88-6.49-1.27-11.95-1.16-12.76l3.71-17.38l-18.25-1.38
		c-0.17-0.01-17.9-1.58-35.22-10.75c-9.77-5.18-17.47-11.75-22.89-19.54C117.4,282.83,114,270.9,114,257.03
		c0-26.5,8.13-48.71,24.16-66.01c11.83-12.77,23.99-18.28,24.93-18.69l14.39-5.49l-5.41-14.67c-0.28-0.82-4.88-14.85-3.06-30.76
		c2.3-20.02,13.43-33.85,34.04-42.28c12.28-5.02,24.01-7.57,34.89-7.57c27.15,0,41.21,15.83,42.49,17.34l15.38,21.28l11.38-23.82
		C308.3,84.43,321.33,63,356.32,63 M163.15,172.31L163.15,172.31L163.15,172.31 M196.77,341.42L196.77,341.42L196.77,341.42
		 M356.32,47C309.4,47,293,78.99,293,78.99s-18.35-23.43-55.05-23.42c-11.76,0-25.42,2.41-40.95,8.76c-64,26.18-40,93.21-40,93.21
		s-59,24.09-59,99.49c0,75.41,83,81.69,83,81.69s-6,32.47,27,50.27c13.43,7.25,26.84,9.82,39.11,9.82
		c29.84,0,52.89-15.21,52.89-15.21s24.64,47.31,70.81,47.31c3.91,0,7.97-0.34,12.19-1.07c54-9.43,66.92-74.36,66.92-74.36
		s29.37,17.22,61.69,17.22c16.16,0,33.06-4.31,47.39-17.22c43-38.75,0-111.01,0-111.01s41-57.6,11-112.06
		c-13.22-24-39.25-30.71-64.25-30.71c-31.72,0-61.75,10.81-61.75,10.81s3-49.22-63-62.84C371.96,47.8,363.76,47,356.32,47L356.32,47
		z"/>
</g>
<g>
	<path class="st0" d="M101,368.34c18.2,0,33,14.2,33,31.65s-14.8,31.65-33,31.65s-33-14.2-33-31.65S82.8,368.34,101,368.34
		 M101,352.34c-27.06,0-49,21.33-49,47.65s21.94,47.65,49,47.65s49-21.33,49-47.65S128.06,352.34,101,352.34L101,352.34z"/>
</g>
<g>
	<path class="st0" d="M43,470.97c10.48,0,19,7.86,19,17.51S53.48,506,43,506s-19-7.86-19-17.51S32.52,470.97,43,470.97 M43,454.97
		c-19.33,0-35,15-35,33.51S23.67,522,43,522s35-15,35-33.51S62.33,454.97,43,454.97L43,454.97z"/>
</g>
</svg>
