<?xml version="1.0" encoding="UTF-8"?>
<svg id="Ebene_1" data-name="Ebene 1" xmlns="http://www.w3.org/2000/svg" viewBox="0 0 600 600">
  <defs>
    <style>
      .cls-1 {
        fill: #fff;
      }

      .cls-1, .cls-2 {
        stroke-width: 0px;
      }

      .cls-2 {
        fill: red;
      }
    </style>
  </defs>
  <path class="cls-1" d="M334.26,489.68c-48.57,0-75.77-50.74-76.04-51.25l-4.11-7.83-7.39,4.86c-.24.16-25.63,16.53-57.68,16.53-14.95,0-29.12-3.55-42.11-10.56-32.91-17.75-27.85-49.23-27.62-50.56l1.51-8.68-8.78-.71c-.22-.02-23.39-1.96-46-14.07-29.22-15.65-44.04-40.5-44.04-73.85s10.74-63.09,31.93-85.56c15.95-16.91,32.21-23.77,32.37-23.84l7.03-2.92-2.55-7.18c-.06-.17-6.5-18.69-4.21-40.2,2.94-27.76,18.64-47.65,46.67-59.12,15.72-6.43,30.87-9.69,45.04-9.69,38.38,0,57.56,23.46,58.35,24.46l7.73,9.67,5.67-10.99c.69-1.32,18.05-33.2,67.21-33.2,8.61,0,17.81,1,27.35,2.97,69.33,14.3,67.69,63.41,67.59,65.49l-.6,11.99,11.29-4.02c.34-.12,34.46-12.22,69.78-12.22s56.75,10.74,68.42,31.91c13.45,24.42,15.55,52.37,6.25,83.09-7.11,23.48-18.56,39.81-18.68,39.97l-3,4.24,2.65,4.48c.47.79,46.49,79.76,1.52,120.29-13.37,12.05-30.29,18.16-50.28,18.16-35.36,0-68.04-18.93-68.37-19.12l-9.7-5.69-2.19,11.03c-.03.17-3.79,18.37-14.83,37.47-14.29,24.73-33.56,39.37-57.26,43.5-4.34.76-8.69,1.14-12.93,1.14Z"/>
  <path class="cls-2" d="M317.25,63c8.07,0,16.73.94,25.74,2.8,26.55,5.48,44.87,16.74,54.44,33.46,6.77,11.83,6.79,22.66,6.77,23.76l-2.04,24.32,23.42-8.38c.33-.12,33.25-11.75,67.09-11.75,14.41,0,26.78,2.1,36.77,6.24,11.14,4.62,19.2,11.66,24.64,21.53,12.3,22.33,14.23,48.06,5.73,76.46-6.69,22.34-17.58,37.97-17.67,38.1l-6.05,8.5,5.33,8.96c.11.19,11.42,19.37,17.1,43.58,6.94,29.58,2.21,52.02-14.06,66.68-11.86,10.69-26.97,16.1-44.92,16.1-32.93,0-64.04-17.86-64.32-18.02l-19.39-11.42-4.39,22.06c-.04.17-3.65,17.46-14.13,35.44-13.03,22.35-30.35,35.56-51.49,39.25-3.89.68-7.78,1.02-11.55,1.02-17.85,0-34.67-7.58-50-22.52-12.01-11.71-18.59-23.77-18.95-24.43l-8.05-15.97-14.92,10.01c-.87.56-24.22,15.23-53.3,15.23-13.61,0-26.5-3.23-38.31-9.6-11.58-6.25-19.04-15.03-22.17-26.1-2.34-8.26-1.49-15.14-1.37-16l3.67-17.4-18.17-1.38c-.22-.02-22.14-1.92-43.29-13.37-11.65-6.31-20.85-14.32-27.32-23.79-8.02-11.72-12.08-26.12-12.08-42.79,0-31.93,9.85-58.7,29.28-79.56,14.42-15.49,29.21-22.06,30.08-22.44l14.19-5.61-5.22-14.58c-.06-.16-5.77-16.82-3.84-36.2,1.1-10.98,4.44-20.66,9.95-28.79,6.96-10.28,17.68-18.43,31.84-24.23,14.75-6.03,28.88-9.09,42.02-9.09,33.5,0,50.69,19.77,52.06,21.4l15.38,21.02,11.39-23.56c1.18-2.11,17.03-28.92,60.13-28.92M257.15,91.85h0,0M89.39,191.54h0,0M127.2,392.19h0,0M317.25,47c-55.08,0-74.33,37.56-74.33,37.56,0,0-21.54-27.5-64.63-27.5-13.81,0-29.84,2.83-48.07,10.29-75.13,30.74-46.96,109.42-46.96,109.42,0,0-69.26,28.28-69.26,116.8s97.44,95.9,97.44,95.9c0,0-7.04,38.11,31.7,59.01,15.77,8.51,31.51,11.52,45.91,11.52,35.03,0,62.09-17.86,62.09-17.86,0,0,28.93,55.54,83.13,55.54,4.59,0,9.36-.4,14.31-1.26,63.39-11.07,78.56-87.29,78.56-87.29,0,0,34.48,20.22,72.42,20.22,18.97,0,38.81-5.06,55.63-20.22,50.48-45.49,0-130.32,0-130.32,0,0,48.13-67.62,12.91-131.55-15.52-28.18-46.08-36.05-75.42-36.05-37.23,0-72.49,12.69-72.49,12.69,0,0,3.52-57.78-73.96-73.77-10.61-2.19-20.23-3.13-28.97-3.13h0Z"/>
</svg>